PathFileType	4	(X/Y/Z)	D:\TRACE\spot_10-12-23\spot_body_motion_3_4-platform.trc
DataRate	CameraRate	NumFrames	NumMarkers	Units	OrigDataRate	OrigDataStartFrame	OrigNumFrames
100.00	100.00	      30	5	mm	100.00	2626	      7000
Frame#	Time	Left_Front			Right_Front			Left_Aft			Right_Aft			Post			
		X1	Y1	Z1	X2	Y2	Z2	X3	Y3	Z3	X4	Y4	Z4	X5	Y5	Z5	

2626	26.250	-786.38068	2.21559	-642.44208	786.37372	6.73564	-635.74829	-703.41614	8.34292	495.18713	714.04492	13.65009	581.27557	-3.40203	737.71362	-965.39667	
2627	26.260	-786.26959	1.29300	-642.78784	786.46082	5.94462	-636.05853	-703.19086	8.96185	495.10458	714.26239	14.41820	581.21985	-3.25647	736.44580	-966.57532	
2628	26.270	-786.17285	0.71418	-642.97992	786.65680	5.10556	-635.98932	-702.98737	9.40028	494.99084	714.36041	14.92079	581.04004	-3.41015	735.20288	-967.64117	
2629	26.280	-786.05426	-0.16357	-643.16809	786.75909	4.22302	-636.26428	-702.85040	10.01010	494.81464	714.33386	15.55374	580.86554	-3.11312	734.04529	-968.70837	
2630	26.290	-785.80286	-1.30442	-643.34070	786.76373	3.50266	-636.56726	-702.83649	10.56173	494.59436	714.46149	16.23572	580.66058	-3.10783	732.78339	-969.55573	
2631	26.300	-785.81403	-1.92906	-643.50006	786.79681	2.81477	-636.57654	-702.75464	11.01034	494.59924	714.53302	16.94967	580.49030	-3.13816	731.77466	-970.72168	
2632	26.310	-785.73541	-2.48966	-643.68256	786.99768	1.87038	-636.83051	-702.73865	11.53227	494.18518	714.61456	17.56800	580.22955	-3.30174	730.44080	-971.53833	
2633	26.320	-785.52716	-3.62076	-643.81317	786.99048	1.15435	-636.99982	-702.68604	12.07662	494.13541	714.74170	18.14591	580.15051	-2.93988	729.39966	-972.64526	
2634	26.330	-785.56348	-4.26608	-643.89459	787.01685	0.45593	-637.04541	-702.61230	12.62961	493.82080	714.77173	18.75113	579.89557	-2.90961	728.27509	-973.54315	
2635	26.340	-785.66858	-4.83507	-644.11609	786.84302	-0.26559	-637.45062	-702.57068	13.21220	493.67657	714.75452	19.22803	579.68488	-2.73747	727.14526	-974.66113	
2636	26.350	-785.63123	-5.47968	-644.29016	787.04083	-1.08475	-637.58813	-702.63336	13.72713	493.37234	714.81738	19.97680	579.46973	-2.92096	726.25830	-975.78137	
2637	26.360	-785.58032	-6.33455	-644.38947	787.06476	-1.64263	-637.52332	-702.58014	14.15995	493.17001	714.81915	20.51475	579.34076	-2.74559	724.98840	-976.50226	
2638	26.370	-785.28827	-7.35301	-644.42914	787.05389	-2.37784	-637.82410	-702.45825	14.46057	492.94507	714.86926	20.95020	579.19427	-2.58600	723.91278	-977.37854	
2639	26.380	-785.35626	-7.58184	-644.74255	786.94830	-3.06063	-637.92633	-702.42151	14.91467	492.85388	714.88312	21.52065	578.97070	-2.53236	723.07452	-978.15253	
2640	26.390	-785.46460	-8.06797	-644.97101	787.05786	-3.67531	-637.96759	-702.52045	15.39196	492.68524	714.88037	22.05492	578.82849	-2.68978	722.13281	-979.34033	
2641	26.400	-785.39569	-8.95214	-645.07983	787.13062	-4.24396	-638.02350	-702.63690	15.76587	492.49368	715.02594	22.59138	578.64636	-2.57762	721.13647	-980.10248	
2642	26.410	-785.24310	-9.87022	-645.14673	787.12714	-5.05060	-638.36700	-702.64374	16.34802	492.35376	715.09979	23.06089	578.58801	-2.74707	720.41864	-980.67883	
2643	26.420	-785.44513	-10.15771	-645.32678	787.05750	-5.53173	-638.47748	-702.56812	16.63542	492.29623	714.95496	23.53986	578.43695	-2.56984	719.29462	-981.56097	
2644	26.430	-785.39227	-10.66195	-645.44183	787.05560	-5.93858	-638.53998	-702.50513	17.04133	492.18835	714.89032	23.92547	578.33374	-2.55855	718.44043	-982.27557	
2645	26.440	-785.45679	-11.45337	-645.44965	787.09778	-6.56223	-638.57458	-702.43243	17.41717	492.01837	714.87341	24.48392	578.12555	-2.78189	717.52728	-982.89325	
2646	26.450	-785.41162	-12.12061	-645.63849	787.12323	-7.46552	-638.69574	-702.62292	17.89037	491.78552	714.89154	24.98862	577.95081	-2.95959	716.71051	-983.63208	
2647	26.460	-785.39661	-12.61691	-645.76703	786.98132	-7.84393	-638.85388	-702.77631	18.24953	491.68979	714.95532	25.36570	577.89404	-2.66551	716.00403	-984.36475	
2648	26.470	-785.58020	-13.09288	-645.88824	786.78229	-8.30776	-639.08167	-702.86523	18.41994	491.75085	714.83234	25.81966	577.69739	-2.89117	714.97943	-985.00171	
2649	26.480	-785.95618	-13.50416	-646.01263	786.84076	-8.75158	-639.14490	-702.92957	18.67190	491.67072	714.53546	26.30871	577.44043	-3.01370	714.19592	-985.57898	
2650	26.490	-786.23431	-13.77990	-646.06470	786.79163	-9.21667	-639.19250	-703.00305	19.00760	491.55118	714.19324	26.67222	577.27399	-3.42495	713.54193	-986.49731	
2651	26.500	-786.16980	-14.47304	-646.12250	786.63190	-9.86383	-639.27448	-703.06409	19.59821	491.47324	713.94086	26.95371	577.21399	-3.51748	712.78180	-987.29321	
2652	26.510	-786.09143	-15.17983	-646.22052	786.41028	-10.37924	-639.50635	-703.26563	20.06681	491.09998	713.92377	27.34412	577.04596	-3.44788	712.04907	-987.75702	
2653	26.520	-786.43396	-15.70889	-646.34247	786.35913	-10.90710	-639.46106	-703.41534	20.32641	491.10498	713.86890	27.69012	576.89923	-3.58571	711.40094	-988.38281	
2654	26.530	-786.59015	-15.71099	-646.56470	786.20129	-11.37390	-639.56793	-703.56165	20.62142	491.00101	713.65192	28.00578	576.74750	-3.68906	710.66376	-989.12152	
2655	26.540	-786.60834	-16.36447	-646.52313	786.06970	-11.59940	-639.63348	-703.72314	20.88119	490.88477	713.45996	28.30248	576.62225	-3.93677	710.24359	-989.65814	
